# xmcd
#
# Track frame offsets:
#	150
#	48562
#	67876
#	94155
#	120929
#	138878
#	169971
#	190983
#	216090
#	237310
#
# Disc length: 3413 seconds
#
# Revision: 0
# Processed by: cddbd v1.5.2PL0 Copyright (c) Steve Scherf et al.
# Submitted via: audiograbber 1.83.01
#
DISCID=890d530a
DTITLE=Deep Purple - 1990-1996 [CD 2)
DYEAR=2004
DGENRE=HardRock
TTITLE0=Child In Time [live]
TTITLE1=A Twist In The Tale
TTITLE2=Time To Kill
TTITLE3=Tha Battle Rages On
TTITLE4=Lick It Up
TTITLE5=Perfect Strangers [live]
TTITLE6=One Man's Meat
TTITLE7=Ramshackle Man
TTITLE8=Solitaire
TTITLE9=Talk About Love
EXTD=
EXTT0=
EXTT1=
EXTT2=
EXTT3=
EXTT4=
EXTT5=
EXTT6=
EXTT7=
EXTT8=
EXTT9=
PLAYORDER=
